<svg width="648" height="648" viewBox="0 0 648 648" fill="none" xmlns="http://www.w3.org/2000/svg">
<path d="M322.354 552.754C346.058 521.461 357.721 482.688 355.214 443.511C352.707 404.333 336.198 367.363 308.699 339.346C274.352 304.008 253.83 257.515 250.867 208.325C247.903 159.134 262.694 110.514 292.549 71.3071L335.511 15.2333C332.65 15.013 329.981 14.6038 326.926 14.5724C202.454 13.2941 100.235 150.477 98.1 321.145C97.5586 466.819 169.235 589.367 268.556 622.845L322.354 552.754Z" fill="#AD6F0F"/>
<path d="M338.786 309.87C373.14 345.189 393.697 391.65 396.73 440.828C399.763 490.005 385.07 538.64 355.317 577.913L314.485 631.145L320.59 631.589C445.062 632.868 547.47 495.878 549.605 325.209C551.272 181.457 480.178 57.9594 381.995 25.2569L326.646 97.6233C303.007 128.628 291.237 167.066 293.463 205.992C295.69 244.917 311.766 281.762 338.786 309.87Z" fill="#AD6F0F"/>
</svg>
